<svg id="Layer_1" data-name="Layer 1" xmlns="http://www.w3.org/2000/svg" viewBox="0 0 307.92 48.31">
  <defs>
    <style>
      .cls-1 {
        fill: #fed136;
      }
    </style>
  </defs>
  <g>
    <path class="cls-1" d="M6.34,35.09H3.6v-9.7H0l1.68-2.78H3.6V9a8.48,8.48,0,0,1,.72-3.46A9.33,9.33,0,0,1,9.1.72,8.27,8.27,0,0,1,12.53,0a7.62,7.62,0,0,1,3.41.7,10.09,10.09,0,0,1,2.88,2,9.37,9.37,0,0,1,2,2.88A7.88,7.88,0,0,1,21.46,9V35.09H18.67v-9.7H6.34ZM18.67,22.61V9a5.75,5.75,0,0,0-.53-2.52,6.36,6.36,0,0,0-1.39-1.95,6.47,6.47,0,0,0-2-1.27,5.87,5.87,0,0,0-2.25-.45A5.81,5.81,0,0,0,8.06,4.66,6.19,6.19,0,0,0,6.34,9V22.61Z"/>
    <path class="cls-1" d="M24.53.72h2.73V35.09H24.53Z"/>
    <path class="cls-1" d="M50.06,30a10.51,10.51,0,0,1-3.93,4.18,10.64,10.64,0,0,1-5.67,1.58,10.51,10.51,0,0,1-7.68-3.21,10.54,10.54,0,0,1-3.21-7.73,10.38,10.38,0,0,1,3.21-7.68,10.52,10.52,0,0,1,7.68-3.22,10.66,10.66,0,0,1,5.33,1.42,11,11,0,0,1,3.89,3.58L35.57,31.3a7.61,7.61,0,0,0,4.89,1.63,7.84,7.84,0,0,0,4.25-1.18,8,8,0,0,0,2.95-3.19ZM45.79,18.63a8,8,0,0,0-5.33-2,8,8,0,0,0-8.11,8.11,8.22,8.22,0,0,0,1.34,4.56Z"/>
    <path class="cls-1" d="M67.63,35.09H64.46l-5.18-9.17-5.23,9.17H50.88l6.81-11.9-5-8.79h3.17l3.41,6,3.36-6h3.21l-5,8.79Z"/>
    <path class="cls-1" d="M100.11.1v35H97.33V7.25l-9.89,10.8L77.5,7.25V35.09H74.77V.1L87.44,14Z"/>
    <path class="cls-1" d="M113.31,35.71a10.48,10.48,0,0,1-7.68-3.21,10.55,10.55,0,0,1-3.22-7.73,10.39,10.39,0,0,1,3.22-7.68,10.83,10.83,0,0,1,15.55.14l3.07-2.83V35.09l-3.07-2.78A10.49,10.49,0,0,1,113.31,35.71ZM107.55,19a7.83,7.83,0,0,0-2.35,5.76,8.14,8.14,0,1,0,16.27,0A8.18,8.18,0,0,0,107.55,19Z"/>
    <path class="cls-1" d="M143.65,19.54a8,8,0,0,0-6.24-2.88,8,8,0,0,0-8.12,8.11,7.9,7.9,0,0,0,2.36,5.81,7.8,7.8,0,0,0,5.76,2.35,7.67,7.67,0,0,0,6-2.74l2.26,1.73a10.93,10.93,0,0,1-3.7,2.81,10.67,10.67,0,0,1-4.6,1,10.48,10.48,0,0,1-7.68-3.21,10.51,10.51,0,0,1-3.22-7.73,10.36,10.36,0,0,1,3.22-7.68,10.49,10.49,0,0,1,7.68-3.22,10.49,10.49,0,0,1,8.4,3.94Z"/>
    <path class="cls-1" d="M161.36,19.92a5.51,5.51,0,0,0-1.15-1.73,5.12,5.12,0,0,0-1.73-1.12,5.73,5.73,0,0,0-2.16-.41,5.41,5.41,0,0,0-3.89,1.58,5.22,5.22,0,0,0-1.58,3.84v13h-2.74V.72h2.74V15.94a8.23,8.23,0,0,1,13.72,6.14v13h-2.78v-13A5.38,5.38,0,0,0,161.36,19.92Z"/>
    <path class="cls-1" d="M170.33,6.34v3H167.6v-3Zm0,8.06V35.09H167.6V14.4Z"/>
    <path class="cls-1" d="M173.4,14.4l2.36,1.92a7.78,7.78,0,0,1,5.85-2.45,8.19,8.19,0,0,1,8.26,8.21v13h-2.79v-13a5.38,5.38,0,0,0-.43-2.16,5.51,5.51,0,0,0-1.15-1.73,5.12,5.12,0,0,0-1.73-1.12,5.73,5.73,0,0,0-2.16-.41,5.42,5.42,0,0,0-3.89,1.58,5.26,5.26,0,0,0-1.58,3.84v13H173.4Z"/>
    <path class="cls-1" d="M227.71.12v35h-2.78V7.27L215,18.07,205.1,7.27V35.11h-2.73V.12L215,14Z"/>
    <path class="cls-1" d="M240.91,35.74a10.52,10.52,0,0,1-7.68-3.22A10.54,10.54,0,0,1,230,24.79a10.38,10.38,0,0,1,3.21-7.68,10.85,10.85,0,0,1,15.55.15l3.08-2.84V35.11l-3.08-2.78A10.5,10.5,0,0,1,240.91,35.74ZM235.15,19a7.83,7.83,0,0,0-2.35,5.76,8.14,8.14,0,1,0,16.27,0A8.18,8.18,0,0,0,235.15,19Z"/>
    <path class="cls-1" d="M258.24,43.08a5.32,5.32,0,0,0,4.7,2.45,5.6,5.6,0,0,0,2.33-.46A5.24,5.24,0,0,0,267,43.85a5.73,5.73,0,0,0,1.54-3.94V33.58a8.08,8.08,0,0,1-5.47,2.11,8,8,0,0,1-8.21-8.26v-13h2.74v13a5.48,5.48,0,0,0,5.47,5.47A5,5,0,0,0,267,31.27a5.51,5.51,0,0,0,1.54-3.84v-13h2.78V39.91a8.35,8.35,0,0,1-8.4,8.4,7.9,7.9,0,0,1-6.86-3.6Z"/>
    <path class="cls-1" d="M294.1,30a10.51,10.51,0,0,1-3.94,4.17,10.64,10.64,0,0,1-5.66,1.59,10.49,10.49,0,0,1-7.68-3.22,10.51,10.51,0,0,1-3.22-7.73,10.36,10.36,0,0,1,3.22-7.68,10.48,10.48,0,0,1,7.68-3.21,10.64,10.64,0,0,1,5.32,1.41,11,11,0,0,1,3.89,3.58L279.6,31.32A7.66,7.66,0,0,0,284.5,33a7.91,7.91,0,0,0,4.24-1.17,8.15,8.15,0,0,0,3-3.2Zm-4.28-11.33a8.06,8.06,0,0,0-5.32-2,8,8,0,0,0-8.12,8.11,8.13,8.13,0,0,0,1.35,4.56Z"/>
    <path class="cls-1" d="M301.44,32.76a3.69,3.69,0,0,0,3.69-3.7,3.66,3.66,0,0,0-.74-2.28,3.35,3.35,0,0,0-1.85-1.27l-2.44-.72a5.62,5.62,0,0,1-2.91-2,5.15,5.15,0,0,1-1.13-3.26,5.28,5.28,0,0,1,1.59-3.89,5.41,5.41,0,0,1,3.89-1.58,5.37,5.37,0,0,1,5,3.36L304,18.5a2.34,2.34,0,0,0-2.44-1.63,2.5,2.5,0,0,0-1.92.82,2.62,2.62,0,0,0-.77,1.87,2.4,2.4,0,0,0,2,2.54l2.44.72a6.33,6.33,0,0,1,4.66,6.24,6.54,6.54,0,0,1-.5,2.57,6.48,6.48,0,0,1-1.37,2A6.09,6.09,0,0,1,304,35a6.75,6.75,0,0,1-2.54.48,6.26,6.26,0,0,1-3.34-.94A7.05,7.05,0,0,1,295.68,32l2.4-1.34A3.47,3.47,0,0,0,301.44,32.76Z"/>
  </g>
  <rect class="cls-1" x="195" y="22.24" width="2.74" height="3.02"/>
</svg>
