<svg id="Layer_1" data-name="Layer 1" xmlns="http://www.w3.org/2000/svg" viewBox="0 0 324.52 48.29">
  <defs>
    <style>
      .cls-1 {
        fill: #fed136;
      }
    </style>
  </defs>
  <g>
    <path class="cls-1" d="M6.34,35.09H3.6v-9.7H0l1.68-2.78H3.6V9a8.48,8.48,0,0,1,.72-3.46A9.33,9.33,0,0,1,9.1.72,8.27,8.27,0,0,1,12.53,0a7.62,7.62,0,0,1,3.41.7,10.09,10.09,0,0,1,2.88,2,9.37,9.37,0,0,1,2,2.88A7.88,7.88,0,0,1,21.46,9V35.09H18.67v-9.7H6.34ZM18.67,22.61V9a5.75,5.75,0,0,0-.53-2.52,6.36,6.36,0,0,0-1.39-1.95,6.47,6.47,0,0,0-2-1.27,5.87,5.87,0,0,0-2.25-.45A5.81,5.81,0,0,0,8.06,4.66,6.19,6.19,0,0,0,6.34,9V22.61Z"/>
    <path class="cls-1" d="M24.53.72h2.73V35.09H24.53Z"/>
    <path class="cls-1" d="M50.06,30a10.51,10.51,0,0,1-3.93,4.18,10.64,10.64,0,0,1-5.67,1.58,10.51,10.51,0,0,1-7.68-3.21,10.54,10.54,0,0,1-3.21-7.73,10.38,10.38,0,0,1,3.21-7.68,10.52,10.52,0,0,1,7.68-3.22,10.66,10.66,0,0,1,5.33,1.42,11,11,0,0,1,3.89,3.58L35.57,31.3a7.61,7.61,0,0,0,4.89,1.63,7.84,7.84,0,0,0,4.25-1.18,8,8,0,0,0,2.95-3.19ZM45.79,18.63a8,8,0,0,0-5.33-2,8,8,0,0,0-8.11,8.11,8.22,8.22,0,0,0,1.34,4.56Z"/>
    <path class="cls-1" d="M67.63,35.09H64.46l-5.18-9.17-5.23,9.17H50.88l6.81-11.9-5-8.79h3.17l3.41,6,3.36-6h3.21l-5,8.79Z"/>
    <path class="cls-1" d="M113.71.1v35h-2.78V7.25L101,18.05,91.1,7.25V35.09H88.37V.1L101,14Z"/>
    <path class="cls-1" d="M126.91,35.71a10.48,10.48,0,0,1-7.68-3.21A10.55,10.55,0,0,1,116,24.77a10.39,10.39,0,0,1,3.22-7.68,10.83,10.83,0,0,1,15.55.14l3.07-2.83V35.09l-3.07-2.78A10.49,10.49,0,0,1,126.91,35.71ZM121.15,19a7.83,7.83,0,0,0-2.35,5.76,8.14,8.14,0,1,0,16.27,0A8.18,8.18,0,0,0,121.15,19Z"/>
    <path class="cls-1" d="M157.25,19.54A8,8,0,0,0,151,16.66a8,8,0,0,0-8.12,8.11,7.9,7.9,0,0,0,2.36,5.81A7.8,7.8,0,0,0,151,32.93a7.67,7.67,0,0,0,6-2.74l2.26,1.73a10.93,10.93,0,0,1-3.7,2.81,10.67,10.67,0,0,1-4.6,1,10.48,10.48,0,0,1-7.68-3.21,10.51,10.51,0,0,1-3.22-7.73,10.36,10.36,0,0,1,3.22-7.68A10.49,10.49,0,0,1,151,13.87a10.49,10.49,0,0,1,8.4,3.94Z"/>
    <path class="cls-1" d="M175,19.92a5.51,5.51,0,0,0-1.15-1.73,5.12,5.12,0,0,0-1.73-1.12,5.73,5.73,0,0,0-2.16-.41A5.41,5.41,0,0,0,166,18.24a5.22,5.22,0,0,0-1.58,3.84v13h-2.74V.72h2.74V15.94a8.23,8.23,0,0,1,13.72,6.14v13h-2.78v-13A5.38,5.38,0,0,0,175,19.92Z"/>
    <path class="cls-1" d="M183.93,6.34v3H181.2v-3Zm0,8.06V35.09H181.2V14.4Z"/>
    <path class="cls-1" d="M187,14.4l2.36,1.92a7.78,7.78,0,0,1,5.85-2.45,8.19,8.19,0,0,1,8.26,8.21v13h-2.79v-13a5.38,5.38,0,0,0-.43-2.16,5.51,5.51,0,0,0-1.15-1.73,5.12,5.12,0,0,0-1.73-1.12,5.73,5.73,0,0,0-2.16-.41,5.42,5.42,0,0,0-3.89,1.58,5.26,5.26,0,0,0-1.58,3.84v13H187Z"/>
    <path class="cls-1" d="M215.9,26h-9.41V23.23h9.41Z"/>
    <path class="cls-1" d="M244.32.1v35h-2.79V7.25l-9.89,10.8-9.93-10.8V35.09H219V.1L231.64,14Z"/>
    <path class="cls-1" d="M257.52,35.71a10.48,10.48,0,0,1-7.68-3.21,10.51,10.51,0,0,1-3.22-7.73,10.36,10.36,0,0,1,3.22-7.68,10.83,10.83,0,0,1,15.55.14l3.07-2.83V35.09l-3.07-2.78A10.51,10.51,0,0,1,257.52,35.71ZM251.76,19a7.84,7.84,0,0,0-2.36,5.76,7.9,7.9,0,0,0,2.36,5.81,8.23,8.23,0,0,0,11.52,0,7.92,7.92,0,0,0,2.4-5.81,7.79,7.79,0,0,0-2.4-5.71,8.17,8.17,0,0,0-11.52,0Z"/>
    <path class="cls-1" d="M274.84,43.06a5.33,5.33,0,0,0,4.71,2.45,5.8,5.8,0,0,0,2.33-.46,5.34,5.34,0,0,0,1.75-1.22,6,6,0,0,0,1.13-1.78,5.72,5.72,0,0,0,.4-2.16V33.55a8,8,0,0,1-5.47,2.12,8.06,8.06,0,0,1-8.21-8.26v-13h2.74v13a5.3,5.3,0,0,0,1.63,3.89,5.36,5.36,0,0,0,3.84,1.58,5.07,5.07,0,0,0,3.94-1.63,5.54,5.54,0,0,0,1.53-3.84v-13H288V39.89a8.37,8.37,0,0,1-8.4,8.4,7.93,7.93,0,0,1-6.87-3.6Z"/>
    <path class="cls-1" d="M310.7,30a10.91,10.91,0,0,1-20.5-5.18,10.36,10.36,0,0,1,3.22-7.68,10.49,10.49,0,0,1,7.68-3.22,10.69,10.69,0,0,1,5.33,1.42,11,11,0,0,1,3.89,3.58L296.2,31.3a7.66,7.66,0,0,0,4.9,1.63,7.86,7.86,0,0,0,4.25-1.18,8.11,8.11,0,0,0,2.95-3.19Zm-4.27-11.32a8.06,8.06,0,0,0-5.33-2A8,8,0,0,0,293,24.77a8.14,8.14,0,0,0,1.34,4.56Z"/>
    <path class="cls-1" d="M318,32.74a3.69,3.69,0,0,0,3.7-3.7,3.73,3.73,0,0,0-.74-2.28,3.39,3.39,0,0,0-1.85-1.27l-2.45-.72a5.66,5.66,0,0,1-2.91-2,5.14,5.14,0,0,1-1.12-3.26,5.27,5.27,0,0,1,1.58-3.89,5.37,5.37,0,0,1,3.89-1.58,5.37,5.37,0,0,1,5,3.36l-2.54,1.05a2.35,2.35,0,0,0-2.45-1.63,2.5,2.5,0,0,0-1.92.82,2.66,2.66,0,0,0-.77,1.87,2.41,2.41,0,0,0,2,2.54l2.45.72A6.3,6.3,0,0,1,324.52,29a6.54,6.54,0,0,1-.5,2.57,6.42,6.42,0,0,1-1.37,2A5.88,5.88,0,0,1,320.59,35a6.8,6.8,0,0,1-2.55.48,6.22,6.22,0,0,1-3.33-.93A7.16,7.16,0,0,1,312.28,32l2.4-1.35A3.46,3.46,0,0,0,318,32.74Z"/>
  </g>
</svg>
