<svg id="Layer_1" data-name="Layer 1" xmlns="http://www.w3.org/2000/svg" viewBox="0 0 224.68 51.17">
  <defs>
    <style>
      .cls-1 {
        fill: #fed136;
      }
    </style>
  </defs>
  <g>
    <path class="cls-1" d="M9.94,7.82h.29l9.16,33H17.91l-1.68-6H3.94l-1.68,6H.82ZM4.32,33.41H15.84L11,15.69c-.43-1.44-.86-3.65-.91-4-.05.24-.48,2.5-.86,4Z"/>
    <path class="cls-1" d="M22.46,7.15h1.4V40.8h-1.4Z"/>
    <path class="cls-1" d="M27.07,32.83v-.58c0-4.89,2.31-8.4,5.76-8.4s5.47,3.46,5.47,8.31v.77H28.51c0,4.27,1.78,7,5,7a6.17,6.17,0,0,0,3.55-1.2l.68,1a6.57,6.57,0,0,1-4.23,1.44C29.42,41.18,27.07,37.68,27.07,32.83Zm1.44-1.15h8.35c-.14-3.89-1.34-6.58-4-6.58S28.66,27.89,28.51,31.68Z"/>
    <path class="cls-1" d="M44.45,31.82l-4.08-7.58H41.9l3.41,6.38,3.41-6.38h1.49L46.08,32,51,40.8H49.44l-4.18-7.59L41.13,40.8H39.65Z"/>
    <path class="cls-1" d="M62.35,7.82h.29l8.93,16.61L80.5,7.82h.33v33H79.44V16.27c0-1.49.1-3.89.1-3.94-.05.1-1.11,2.11-1.78,3.41L71.66,27h-.19l-6.1-11.18c-.72-1.25-1.63-3.27-1.72-3.46,0,.05.09,2.5.09,4V40.8H62.35Z"/>
    <path class="cls-1" d="M84.81,36.38v-.29c0-3.36,2.5-4.84,5.38-4.84h3.22V28.94c0-2.69-1.3-3.84-3.36-3.84a4.82,4.82,0,0,0-3.56,1.59l-.86-.92a6,6,0,0,1,4.42-1.92c2.92,0,4.75,1.68,4.75,5V40.8H93.41V39a4.65,4.65,0,0,1-8.6-2.6Zm8.6-.29v-3.6H90.33c-2.35,0-4.12,1-4.12,3.6v.24c0,2.36,1.29,3.61,3.36,3.61A3.72,3.72,0,0,0,93.41,36.09Z"/>
    <path class="cls-1" d="M97.68,32.83v-.58c0-4.89,2.64-8.4,6.57-8.4a5,5,0,0,1,3.36,1.06l-.76,1a4.09,4.09,0,0,0-2.6-.82c-3.12,0-5.08,3.07-5.08,7.15v.53c0,4.18,1.82,7.16,5,7.16a4.35,4.35,0,0,0,3-1.11l.82,1a5.4,5.4,0,0,1-3.79,1.34C100.17,41.18,97.68,37.68,97.68,32.83Z"/>
    <path class="cls-1" d="M110.64,7.15H112v19.2a4.61,4.61,0,0,1,4.13-2.5c2.69,0,4.65,1.78,4.65,5.14V40.8h-1.39V29.13c0-2.73-1.25-4-3.36-4a4,4,0,0,0-4,4.22V40.8h-1.39Z"/>
    <path class="cls-1" d="M124.65,16.89A1.06,1.06,0,1,1,125.71,18,1.1,1.1,0,0,1,124.65,16.89Zm.39,7.35h1.39V40.8H125Z"/>
    <path class="cls-1" d="M130.84,24.24h1.4v2.11a4.59,4.59,0,0,1,4.12-2.5c2.69,0,4.66,1.78,4.66,5.14V40.8h-1.39V29.13c0-2.73-1.25-4-3.36-4a4,4,0,0,0-4,4.22V40.8h-1.4Z"/>
    <path class="cls-1" d="M144.23,30.86h5.29v1.25h-5.29Z"/>
    <path class="cls-1" d="M154.17,7.82h.29l8.93,16.61,8.93-16.61h.33v33h-1.39V16.27c0-1.49.1-3.89.1-3.94-.05.1-1.11,2.11-1.78,3.41L163.48,27h-.19l-6.1-11.18c-.71-1.25-1.63-3.27-1.72-3.46,0,.05.09,2.5.09,4V40.8h-1.39Z"/>
    <path class="cls-1" d="M176.63,36.38v-.29c0-3.36,2.5-4.84,5.38-4.84h3.22V28.94c0-2.69-1.3-3.84-3.36-3.84a4.82,4.82,0,0,0-3.56,1.59l-.86-.92a6,6,0,0,1,4.42-1.92c2.92,0,4.75,1.68,4.75,5V40.8h-1.39V39a4.65,4.65,0,0,1-8.6-2.6Zm8.6-.29v-3.6h-3.08c-2.35,0-4.12,1-4.12,3.6v.24c0,2.36,1.29,3.61,3.36,3.61A3.72,3.72,0,0,0,185.23,36.09Z"/>
    <path class="cls-1" d="M193.82,39.26l-5-15h1.48l3.08,9.31c.52,1.63,1.05,3.65,1.15,3.94.05-.2.62-2.26,1.15-3.89l2.88-9.36H200l-8.35,26.4h-1.44Z"/>
    <path class="cls-1" d="M201.26,32.83v-.58c0-4.89,2.3-8.4,5.76-8.4s5.47,3.46,5.47,8.31v.77H202.7c.05,4.27,1.77,7,5,7a6.2,6.2,0,0,0,3.55-1.2l.67,1a6.52,6.52,0,0,1-4.22,1.44C203.61,41.18,201.26,37.68,201.26,32.83Zm1.44-1.15h8.35c-.14-3.89-1.34-6.58-4-6.58S202.84,27.89,202.7,31.68Z"/>
    <path class="cls-1" d="M214.17,39.31l.91-1a4.65,4.65,0,0,0,3.75,1.59c2,0,3.31-1.16,3.31-3v-.19c0-1.63-1.06-2.64-3.36-4.08s-3.75-2.59-3.75-5v-.2a3.79,3.79,0,0,1,4.08-3.6,5.43,5.43,0,0,1,3.6,1.25L222,26.16a4.37,4.37,0,0,0-2.84-1.06,2.43,2.43,0,0,0-2.73,2.35v.15c0,1.77,1,2.49,3.07,3.84,2.54,1.58,4.08,2.93,4.08,5.23V37c0,2.59-2,4.22-4.7,4.22A6,6,0,0,1,214.17,39.31Z"/>
  </g>
</svg>
