<svg id="Layer_2" data-name="Layer 2" xmlns="http://www.w3.org/2000/svg" viewBox="0 0 274.25 44.77">
  <defs>
    <style>
      .cls-1 {
        fill: #fed136;
      }
    </style>
  </defs>
  <g>
    <path class="cls-1" d="M8.7,6.84H9L17,35.7h-1.3L14.2,30.41H3.44L2,35.7H.71ZM3.78,29.23H13.86L9.62,13.73a34.93,34.93,0,0,1-.8-3.49c0,.21-.42,2.19-.75,3.49Z"/>
    <path class="cls-1" d="M20.66,7.13h1.26V34.52h9.41V35.7H20.66Z"/>
    <path class="cls-1" d="M35.32,7.13h11.6V8.31H36.58V24.57h9v1.17h-9v8.78h10.8V35.7H35.32Z"/>
    <path class="cls-1" d="M56.62,20.24,51,7.13h1.34l4.16,9.75c.38.92.8,2.14.88,2.35a23.64,23.64,0,0,1,.88-2.35L62.5,7.13h1.3L58.13,20.28,65.06,35.7H63.72L58.34,23.64c-.42-.92-.93-2.18-1-2.35,0,0-.54,1.39-1,2.35L51,35.7h-1.3Z"/>
    <path class="cls-1" d="M75.43,6.84h.25L83.5,21.38,91.31,6.84h.29V35.7H90.39V14.23c0-1.3.08-3.4.08-3.44s-1,1.85-1.55,3L83.58,23.6h-.17l-5.33-9.79c-.63-1.09-1.43-2.85-1.52-3,0,0,.09,2.18.09,3.49V35.7H75.43Z"/>
    <path class="cls-1" d="M103.28,6.84h.25l8,28.86h-1.3l-1.47-5.29H98L96.56,35.7H95.3ZM98.36,29.23h10.08l-4.24-15.5c-.38-1.26-.75-3.19-.8-3.49,0,.21-.42,2.19-.75,3.49Z"/>
    <path class="cls-1" d="M113.61,22.13V20.7c0-7.68,3.32-13.9,9.41-13.9a7.22,7.22,0,0,1,4.83,1.64l-.76,1A6.28,6.28,0,0,0,123,8c-5.3,0-8.11,5.84-8.11,12.73v1.34c0,7,2.77,12.73,8.11,12.73a6.88,6.88,0,0,0,4.62-1.72l.8.92a7.86,7.86,0,0,1-5.38,2C116.88,36,113.61,29.9,113.61,22.13Z"/>
    <path class="cls-1" d="M132.3,7.13h1.26V24.57h11.26V7.13h1.26V35.7h-1.26v-10H133.56v10H132.3Z"/>
    <path class="cls-1" d="M152.21,7.13h1.26V35.7h-1.26Z"/>
    <path class="cls-1" d="M162.2,13.81c-.63-1.13-1.39-3.1-1.47-3.27,0,0,.08,2.27.08,3.57V35.7H159.6v-29h.29l11.68,22.35c.59,1.18,1.43,3.07,1.51,3.28,0-.09-.08-2.23-.08-3.61V7.13h1.22v29h-.34Z"/>
    <path class="cls-1" d="M178.37,24.57h5.46V25.7h-5.46Z"/>
    <path class="cls-1" d="M188,6.84h.25l7.82,14.54,7.81-14.54h.29V35.7H203V14.23c0-1.3.09-3.4.09-3.44l-1.56,3-5.33,9.83H196l-5.33-9.79c-.63-1.09-1.43-2.85-1.52-3,0,0,.09,2.18.09,3.49V35.7H188Z"/>
    <path class="cls-1" d="M215.88,6.84h.25l8,28.86h-1.3l-1.47-5.29H210.63l-1.47,5.29H207.9ZM211,29.23H221l-4.24-15.5c-.38-1.26-.75-3.19-.8-3.49,0,.21-.42,2.19-.75,3.49Z"/>
    <path class="cls-1" d="M233,26.92,225.62,7.13h1.3L232.47,22c.54,1.52,1.22,3.7,1.22,3.7s.62-2.31,1.17-3.78l5.5-14.75h1.26l-7.35,19.79V35.7H233Z"/>
    <path class="cls-1" d="M245.36,7.13H257V8.31H246.62V24.57h9v1.17h-9v8.78h10.8V35.7H245.36Z"/>
    <path class="cls-1" d="M259.81,33l1-.84a7,7,0,0,0,5.55,2.65c3.27,0,5.08-2.19,5.08-5.42v-.46a9,9,0,0,0-3.32-6.39l-3.27-3.07c-2.27-2.1-3.83-4.11-3.83-6.88v-.3a5.2,5.2,0,0,1,5.38-5.5,6.44,6.44,0,0,1,5,1.89l-.84,1A5.29,5.29,0,0,0,266.36,8c-2.56,0-4.12,1.77-4.12,4.37v.21c0,2.52,1.47,4.16,3.49,6.05l3.15,3c2.44,2.26,3.82,4.66,3.82,7.35v.5c0,4.08-2.43,6.6-6.38,6.6A7.92,7.92,0,0,1,259.81,33Z"/>
  </g>
</svg>
